<svg width="24" height="22" viewBox="0 0 24 22" fill="none" xmlns="http://www.w3.org/2000/svg">
<path d="M11.5714 11.66C11.197 11.66 10.8934 11.9635 10.8934 12.338V17.4404C10.8934 17.8148 11.197 18.1184 11.5714 18.1184C11.9459 18.1184 12.2495 17.8148 12.2495 17.4404V12.338C12.2495 11.9635 11.9459 11.66 11.5714 11.66Z" fill="white"/>
<path d="M7.97208 12.2821C7.94121 11.909 7.61377 11.6315 7.24051 11.6622C6.86733 11.6931 6.5898 12.0206 6.62062 12.3938L7.0423 17.4962C7.07317 17.8695 7.4007 18.1469 7.77387 18.1161C8.14705 18.0852 8.42458 17.7577 8.39376 17.3845L7.97208 12.2821Z" fill="white"/>
<path d="M15.9024 11.6623C15.5291 11.6313 15.2017 11.909 15.1708 12.2821L14.7492 17.3845C14.7183 17.7577 14.9959 18.0852 15.369 18.1161C15.388 18.1177 15.4069 18.1185 15.4256 18.1185C15.7748 18.1185 16.0713 17.8504 16.1006 17.4962L16.5223 12.3938C16.5532 12.0207 16.2756 11.6931 15.9024 11.6623Z" fill="white"/>
<path d="M22.4648 8.54855C21.1238 8.54855 21.2988 8.54855 20.5492 8.54855L17.2315 1.03279C17.123 0.787075 16.8797 0.628601 16.6112 0.628601H14.9882C14.6138 0.628601 14.3102 0.93217 14.3102 1.30661C14.3102 1.68106 14.6138 1.98463 14.9882 1.98463H16.1693L19.0669 8.54859H4.07603L6.97358 1.98463H8.15468C8.52912 1.98463 8.83269 1.68106 8.83269 1.30661C8.83269 0.93217 8.52912 0.628601 8.15468 0.628601H6.53174C6.2632 0.628601 6.01993 0.78712 5.91145 1.03279L2.59371 8.54855C1.74412 8.54855 2.73569 8.54855 0.678012 8.54855C0.303569 8.54855 0 8.85212 0 9.22656C0 9.60101 0.303569 9.90457 0.678012 9.90457H1.38879L3.06945 20.6565C3.12103 20.9865 3.40529 21.2298 3.73933 21.2298H19.4035C19.7376 21.2298 20.0218 20.9865 20.0734 20.6565L21.7541 9.90457H22.4648C22.8393 9.90457 23.1429 9.60101 23.1429 9.22656C23.1429 8.85212 22.8393 8.54855 22.4648 8.54855ZM18.8233 19.8738H4.31962L2.76132 9.90457H20.3816L18.8233 19.8738Z" fill="white"/>
</svg>
