<?xml version="1.0" encoding="iso-8859-1"?>
<!-- Generator: Adobe Illustrator 19.1.0, SVG Export Plug-In . SVG Version: 6.00 Build 0)  -->
<svg version="1.1" id="Capa_1" xmlns="http://www.w3.org/2000/svg" xmlns:xlink="http://www.w3.org/1999/xlink" x="0px" y="0px"
	 viewBox="0 0 368.554 368.554" style="enable-background:new 0 0 368.554 368.554;" xml:space="preserve">
<g>
	<path d="M184.277,0C82.666,0,0,82.667,0,184.277s82.666,184.276,184.277,184.276s184.277-82.666,184.277-184.276
		S285.888,0,184.277,0z M184.277,353.553C90.938,353.553,15,277.616,15,184.277S90.938,15,184.277,15
		s169.277,75.938,169.277,169.276S277.616,353.553,184.277,353.553z M268.622,110.535L110.533,268.624l-10.607-10.607
		L258.014,99.929L268.622,110.535z M131.459,165.187c18.598,0,33.728-15.13,33.728-33.728s-15.13-33.728-33.728-33.728
		s-33.728,15.13-33.728,33.728S112.862,165.187,131.459,165.187z M131.459,112.732c10.326,0,18.728,8.401,18.728,18.728
		s-8.401,18.728-18.728,18.728s-18.728-8.401-18.728-18.728S121.133,112.732,131.459,112.732z M237.094,203.367
		c-18.598,0-33.728,15.13-33.728,33.728s15.13,33.728,33.728,33.728s33.728-15.13,33.728-33.728
		C270.822,218.497,255.692,203.367,237.094,203.367z M237.094,255.822c-10.326,0-18.728-8.401-18.728-18.728
		s8.401-18.728,18.728-18.728s18.728,8.401,18.728,18.728C255.822,247.421,247.421,255.822,237.094,255.822z"/>
</g>
<g>
</g>
<g>
</g>
<g>
</g>
<g>
</g>
<g>
</g>
<g>
</g>
<g>
</g>
<g>
</g>
<g>
</g>
<g>
</g>
<g>
</g>
<g>
</g>
<g>
</g>
<g>
</g>
<g>
</g>
</svg>
