<svg width="134" height="46" viewBox="0 0 134 46" fill="none" xmlns="http://www.w3.org/2000/svg">
<path d="M6.01333 3.70846C5.92173 3.95336 5.78826 4.48121 5.66264 5.3301L5.83275 5.30283L5.76995 5.72726L5.76339 5.95852L5.64628 7.4046L5.36235 7.26594C5.22953 8.06994 5.14645 8.91201 4.99989 9.90238L5.16998 9.87511L5.14249 10.2479L5.13596 10.4791L4.9835 11.9769L4.74929 11.8763C4.659 12.6735 4.57592 13.5156 4.4503 14.3644L4.70544 14.3235L4.64983 14.7929L4.6433 15.0241L4.52618 16.4702L4.24223 16.3315C4.11661 17.1804 4.04073 18.0674 3.96483 18.9543L4.39008 18.8862L4.33448 19.3555L4.32072 19.5419L4.2108 21.0328L3.78489 20.8248C3.70899 21.7118 3.59058 22.6056 3.50749 23.4476L3.89023 23.3863L3.86994 23.8039L3.85618 23.9903L3.74627 25.4812L3.36289 25.2664C3.28699 26.1534 3.1967 26.9506 3.10641 27.7477L3.44661 27.6932L3.391 28.1625L3.37727 28.3489L3.22482 29.8467L2.89115 29.67C2.71842 31.5854 2.62226 32.8899 2.63011 33.211C4.25522 33.8252 5.81555 37.0282 6.07201 37.5396L5.94443 37.56L7.21846 45.2349L15.9859 43.8754L13.5139 36.3465L13.3438 36.3738C12.7583 31.6333 14.9337 28.0616 16.095 27.4151C17.2987 26.7616 15.9949 24.0701 15.9949 24.0701C15.9949 24.0701 11.2982 13.8191 12.2226 11.9674C12.886 10.6639 14.2959 10.2077 15.0117 7.05419C15.7274 3.9007 12.7507 1.38524 10.9633 1.11929C9.21844 0.846517 6.84553 1.82547 6.01333 3.70846ZM6.52413 30.8371C6.62487 31.4656 6.3213 32.0207 5.79725 32.2889C5.67687 32.3542 5.59183 32.3678 5.46425 32.3883C4.74132 32.5042 4.09494 32.0093 3.97261 31.2462C3.85747 30.528 4.35207 29.8041 5.03247 29.695C5.7554 29.5791 6.40179 30.074 6.52413 30.8371ZM11.3563 26.4251C11.4499 27.0087 11.0613 27.5775 10.5084 27.6661C10.2958 27.7002 10.1185 27.6825 9.96933 27.5683C9.64287 27.4365 9.41521 27.1047 9.35764 26.7456C9.30007 26.3865 9.41259 26.0001 9.68148 25.7728C9.82999 25.6109 9.99289 25.5387 10.2055 25.5046C10.7583 25.416 11.2628 25.8416 11.3563 26.4251ZM6.87546 26.4989C6.96181 27.0376 6.73611 27.5342 6.30431 27.8336C6.1486 27.9507 5.98569 28.0228 5.81559 28.0501C5.13518 28.1592 4.43908 27.6262 4.32394 26.908C4.2016 26.1449 4.7034 25.4659 5.38381 25.3568C6.10674 25.2409 6.75312 25.7358 6.87546 26.4989ZM7.6089 21.8232C7.72404 22.5414 7.22943 23.2653 6.54903 23.3744C5.8261 23.4903 5.17971 22.9954 5.05738 22.2323C4.94224 21.5141 5.43684 20.7902 6.11725 20.6811C6.84018 20.5652 7.48656 21.0601 7.6089 21.8232ZM7.90332 17.4021C7.98248 17.8959 7.7993 18.3856 7.41003 18.6783C7.25432 18.7953 7.05608 18.9192 6.84345 18.9533C6.16305 19.0623 5.46695 18.5294 5.35181 17.8111C5.23667 17.0929 5.73127 16.3691 6.41168 16.26C7.13461 16.1441 7.78099 16.639 7.90332 17.4021ZM8.31096 12.8707C8.40451 13.4543 8.10094 14.0094 7.66195 14.2639C7.54157 14.3293 7.41398 14.3497 7.28641 14.3702C6.606 14.4793 5.91709 13.9912 5.79476 13.2281C5.67962 12.5099 6.1317 11.7928 6.85463 11.6769C7.54223 11.6127 8.18862 12.1076 8.31096 12.8707ZM8.88148 8.26718C8.96064 8.76095 8.77745 9.25073 8.4307 9.53653C8.28219 9.69846 8.07676 9.77744 7.82161 9.81834C7.1412 9.92742 6.4523 9.43933 6.32996 8.67623C6.21482 7.95803 6.70943 7.23416 7.38983 7.12508C8.11996 7.05407 8.80886 7.54216 8.88148 8.26718Z" fill="#D55730"/>
<path d="M0.754264 26.6564L1.86434 26.8276C2.0795 26.8566 2.20759 27.2805 2.26262 27.8113L3.08358 27.6797L3.4354 27.6233L3.3876 28.0754L3.38803 28.2658L3.26941 29.7767L2.91215 29.6118L2.1927 29.251C2.06233 29.9385 1.80433 30.3925 1.55985 30.3682L0.449764 30.197C0.141684 30.1512 -0.0215942 29.3203 0.0641149 28.3542C0.115543 27.3619 0.446185 26.6106 0.754264 26.6564Z" fill="#E8E8E8"/>
<path d="M1.34101 22.626L2.44118 22.7353C2.65137 22.7334 2.75962 23.0334 2.79977 23.4714L3.50342 23.3586L3.88459 23.2975L3.86112 23.7139L3.83226 23.909L3.70866 25.389L3.31713 25.1979L2.5634 24.8108C2.41274 25.1841 2.18359 25.4431 1.99775 25.4094L0.8976 25.3001C0.594482 25.2852 0.460957 24.64 0.581397 23.8905C0.68244 23.2077 1.03789 22.6111 1.34101 22.626Z" fill="#E8E8E8"/>
<path d="M1.65773 18.0357L2.76286 18.176C2.97802 18.205 3.09619 18.5669 3.14129 19.0359L3.96224 18.9043L4.40203 18.8338L4.35917 19.3168L4.35962 19.5072L4.23602 20.9872L3.7809 20.7745L3.03212 20.4183C2.88687 21.013 2.62887 21.467 2.37943 21.4118L1.2743 21.2715C0.966217 21.2257 0.817824 20.4876 0.913457 19.5835C1.00909 18.6793 1.34965 17.9899 1.65773 18.0357Z" fill="#E8E8E8"/>
<path d="M2.02761 13.2149L3.1377 13.3861C3.35286 13.4151 3.48592 13.8699 3.52155 14.4673L4.43045 14.3216L4.69433 14.2793L4.65147 14.7623L4.62756 14.9884L4.49899 16.4374L4.20536 16.2941L3.38802 15.8854C3.24774 16.5111 2.98971 16.9651 2.77455 16.9361L1.66448 16.7649C1.3564 16.719 1.19312 15.8881 1.27883 14.9221C1.41822 13.9157 1.74885 13.1643 2.02761 13.2149Z" fill="#E8E8E8"/>
<path d="M2.64793 8.83001L3.75801 9.00123C3.97317 9.03022 4.10128 9.4541 4.15631 9.98492L5.00657 9.84861L5.18249 9.82041L5.15406 10.2059L5.13017 10.4319L5.01152 11.9429L4.78147 11.8211L4.06202 11.4602C3.92173 12.0859 3.68808 12.5043 3.4436 12.48L2.33351 12.3088C2.02543 12.2629 1.86215 11.432 1.94786 10.4659C2.03853 9.53084 2.33985 8.78417 2.64793 8.83001Z" fill="#E8E8E8"/>
<path d="M3.37098 4.52398L4.47113 4.6333C4.68629 4.66229 4.7995 4.99333 4.83964 5.43131L5.6606 5.29969L5.83651 5.27149L5.78869 5.72357L5.76479 5.9496L5.63623 7.39869L5.34258 7.25531L4.55953 6.87294C4.41384 7.27723 4.18469 7.53617 3.99885 7.50247L2.89868 7.39315C2.59556 7.37826 2.45709 6.7021 2.56761 5.89078C2.74173 5.10102 3.09222 4.47344 3.37098 4.52398Z" fill="#E8E8E8"/>
<path fill-rule="evenodd" clip-rule="evenodd" d="M5.03249 29.6951C5.7129 29.586 6.40181 30.0741 6.52414 30.8372C6.62489 31.4656 6.32132 32.0208 5.79727 32.2889C5.67689 32.3543 5.59185 32.3679 5.46427 32.3884C4.74134 32.5043 4.09496 32.0094 3.97262 31.2463C3.85028 30.4832 4.35209 29.8042 5.03249 29.6951Z" fill="#E8E8E8"/>
<path d="M6.14187 20.6816C6.84554 20.5688 7.49688 21.0675 7.61595 21.8103C7.73503 22.553 7.24291 23.2351 6.56857 23.3432C5.8649 23.456 5.21356 22.9573 5.09448 22.2145C4.97541 21.4718 5.46256 20.7588 6.14187 20.6816Z" fill="#E8E8E8"/>
<path d="M6.41978 16.2247C7.12345 16.1118 7.77976 16.6415 7.89388 17.3533C7.97326 17.8485 7.7838 18.355 7.40806 18.6375C7.24702 18.7585 7.05171 18.8533 6.84647 18.8862C6.14281 18.999 5.48651 18.4694 5.37239 17.7575C5.22896 17.0504 5.71611 16.3375 6.41978 16.2247Z" fill="#E8E8E8"/>
<path d="M6.83933 11.7132C7.54299 11.6004 8.19929 12.13 8.31341 12.8418C8.40768 13.4298 8.13523 13.9814 7.63725 14.2517C7.52493 14.3015 7.38329 14.3559 7.23669 14.3794C6.53302 14.4922 5.88168 13.9935 5.7626 13.2508C5.67285 12.5033 6.13566 11.826 6.83933 11.7132Z" fill="#E8E8E8"/>
<path d="M7.4298 7.14291C8.13347 7.0301 8.78481 7.52882 8.90389 8.27158C8.98327 8.76675 8.78887 9.24233 8.44245 9.52007C8.28638 9.67207 8.06174 9.77157 7.8565 9.80447C7.15283 9.91728 6.50149 9.41858 6.38242 8.67581C6.26334 7.93305 6.72614 7.25572 7.4298 7.14291Z" fill="#E8E8E8"/>
<path d="M10.1961 25.5233C10.7531 25.434 11.2723 25.8587 11.3666 26.4467C11.4608 27.0347 11.0661 27.5742 10.5091 27.6635C10.3038 27.6964 10.118 27.6627 9.95651 27.5933C9.63355 27.4546 9.37374 27.1471 9.34352 26.771C9.28398 26.3996 9.40531 26.031 9.66874 25.7983C9.79549 25.651 9.99081 25.5562 10.1961 25.5233Z" fill="#E8E8E8"/>
<path d="M5.38381 25.3567C6.10673 25.2408 6.76031 25.7806 6.87545 26.4988C6.96181 27.0375 6.7361 27.5341 6.3043 27.8335C6.1486 27.9506 5.98568 28.0227 5.81558 28.05C5.13518 28.1591 4.43908 27.6261 4.32394 26.9079C4.24412 26.138 4.7034 25.4658 5.38381 25.3567Z" fill="#E8E8E8"/>
<path d="M33.692 12.088C33.668 12.568 33.644 12.94 33.62 13.204C33.62 13.444 33.608 13.672 33.584 13.888C33.584 14.08 33.572 14.296 33.548 14.536C33.548 14.752 33.548 15.076 33.548 15.508C33.548 15.916 33.548 16.468 33.548 17.164C33.548 17.86 33.56 18.772 33.584 19.9C33.536 19.684 33.272 19.492 32.792 19.324C32.312 19.156 31.724 19.048 31.028 19C30.332 18.928 29.588 18.928 28.796 19C28.028 19.048 27.32 19.192 26.672 19.432C26.144 19.624 25.688 19.96 25.304 20.44C24.944 20.896 24.644 21.46 24.404 22.132C24.188 22.78 24.02 23.5 23.9 24.292C23.804 25.084 23.756 25.9 23.756 26.74C23.78 27.94 23.852 29.128 23.972 30.304C24.116 31.48 24.38 32.548 24.764 33.508C25.172 34.444 25.772 35.224 26.564 35.848C27.356 36.448 28.436 36.796 29.804 36.892C30.476 36.988 31.112 36.94 31.712 36.748C32.312 36.532 32.792 36.064 33.152 35.344C33.224 35.2 33.284 35.164 33.332 35.236C33.404 35.284 33.464 35.368 33.512 35.488C33.512 35.752 33.512 35.956 33.512 36.1C33.536 36.244 33.548 36.436 33.548 36.676C33.548 36.796 33.56 36.88 33.584 36.928C34.304 37.024 35.108 37.048 35.996 37C36.884 36.976 37.7 36.964 38.444 36.964C38.54 33.508 38.528 29.824 38.408 25.912C38.288 22 38.228 18.04 38.228 14.032V11.656C37.844 11.584 37.388 11.548 36.86 11.548C36.332 11.524 35.828 11.524 35.348 11.548C34.892 11.548 34.496 11.572 34.16 11.62C33.848 11.644 33.692 11.668 33.692 11.692V12.088ZM28.112 25.66C28.232 24.82 28.58 24.184 29.156 23.752C29.756 23.32 30.548 23.104 31.532 23.104C32.036 23.104 32.432 23.152 32.72 23.248C33.032 23.32 33.26 23.5 33.404 23.788C33.548 24.076 33.632 24.496 33.656 25.048C33.704 25.576 33.728 26.308 33.728 27.244C33.728 28.012 33.704 28.72 33.656 29.368C33.632 29.992 33.524 30.532 33.332 30.988C33.164 31.444 32.9 31.804 32.54 32.068C32.204 32.332 31.736 32.464 31.136 32.464C30.632 32.464 30.176 32.332 29.768 32.068C29.36 31.804 29.012 31.456 28.724 31.024C28.436 30.568 28.22 30.064 28.076 29.512C27.932 28.936 27.86 28.348 27.86 27.748C27.86 27.412 27.872 27.064 27.896 26.704C27.92 26.344 27.992 25.996 28.112 25.66Z" fill="#C4C4C4"/>
<path d="M49.7801 35.056C49.8041 35.392 49.8041 35.692 49.7801 35.956C49.7801 36.22 49.8041 36.556 49.8521 36.964C49.8521 37.036 49.9481 37.072 50.1401 37.072C50.3321 37.096 50.5481 37.096 50.7881 37.072C51.0281 37.048 51.2681 37.024 51.5081 37C51.7481 36.952 51.9161 36.928 52.0121 36.928C52.3001 36.904 52.5401 36.892 52.7321 36.892C52.9241 36.868 53.1041 36.856 53.2721 36.856C53.4401 36.856 53.6201 36.868 53.8121 36.892C54.0041 36.892 54.2441 36.904 54.5321 36.928C54.6281 33.76 54.6401 30.7 54.5681 27.748C54.5201 24.796 54.4961 21.844 54.4961 18.892C53.9201 18.94 53.4401 18.952 53.0561 18.928C52.6721 18.904 52.3241 18.892 52.0121 18.892C51.7001 18.868 51.3881 18.868 51.0761 18.892C50.7881 18.916 50.4401 18.988 50.0321 19.108V19.252C49.9121 20.044 49.8521 20.836 49.8521 21.628C49.8761 22.42 49.9001 23.224 49.9241 24.04C49.9721 24.832 50.0081 25.636 50.0321 26.452C50.0561 27.268 50.0441 28.084 49.9961 28.9C49.9481 29.548 49.7801 30.04 49.4921 30.376C49.2041 30.688 48.8801 30.904 48.5201 31.024C48.1601 31.12 47.7881 31.144 47.4041 31.096C47.0441 31.024 46.7681 30.94 46.5761 30.844C46.5521 30.82 46.5281 30.808 46.5041 30.808C46.4801 30.808 46.4561 30.796 46.4321 30.772C46.2401 30.628 46.0841 30.424 45.9641 30.16C45.8681 29.896 45.7841 29.596 45.7121 29.26C45.6641 28.924 45.6281 28.588 45.6041 28.252C45.5801 27.892 45.5561 27.568 45.5321 27.28C45.4841 26.632 45.4481 25.936 45.4241 25.192C45.4241 24.448 45.4241 23.704 45.4241 22.96C45.4481 22.216 45.4601 21.496 45.4601 20.8C45.4601 20.104 45.4361 19.48 45.3881 18.928C44.5481 18.928 43.7921 18.928 43.1201 18.928C42.4721 18.904 41.7281 18.952 40.8881 19.072C40.9361 19.888 40.9481 20.836 40.9241 21.916C40.9001 22.996 40.8761 24.124 40.8521 25.3C40.8281 26.452 40.8041 27.604 40.7801 28.756C40.7801 29.884 40.7921 30.928 40.8161 31.888C40.8641 32.848 40.9481 33.676 41.0681 34.372C41.2121 35.044 41.4041 35.488 41.6441 35.704C42.1481 36.136 42.7121 36.436 43.3361 36.604C43.9601 36.772 44.5961 36.844 45.2441 36.82C45.9161 36.796 46.5641 36.676 47.1881 36.46C47.8121 36.244 48.3761 35.956 48.8801 35.596C49.0001 35.5 49.1441 35.404 49.3121 35.308C49.5041 35.212 49.6601 35.128 49.7801 35.056Z" fill="#C4C4C4"/>
<path d="M61.8831 11.692C61.8831 11.668 61.7151 11.644 61.3791 11.62C61.0671 11.572 60.6711 11.548 60.1911 11.548C59.7351 11.524 59.2431 11.524 58.7151 11.548C58.1871 11.548 57.7311 11.584 57.3471 11.656V14.032C57.3471 16.024 57.3231 18.016 57.2751 20.008C57.2271 22 57.1791 23.968 57.1311 25.912C57.1071 27.832 57.0831 29.728 57.0591 31.6C57.0591 33.448 57.0831 35.236 57.1311 36.964C57.8751 36.964 58.6911 36.976 59.5791 37C60.4671 37.048 61.2711 37.024 61.9911 36.928C62.0151 36.88 62.0271 36.796 62.0271 36.676C62.0271 36.436 62.0271 36.244 62.0271 36.1C62.0511 35.956 62.0631 35.752 62.0631 35.488C62.1111 35.368 62.1591 35.284 62.2071 35.236C62.2791 35.164 62.3511 35.2 62.4231 35.344C62.7831 36.064 63.2631 36.532 63.8631 36.748C64.4631 36.94 65.0991 36.988 65.7711 36.892C67.1391 36.796 68.2191 36.448 69.0111 35.848C69.8031 35.224 70.3911 34.444 70.7751 33.508C71.1831 32.548 71.4471 31.48 71.5671 30.304C71.6871 29.128 71.7711 27.94 71.8191 26.74C71.8191 25.9 71.7591 25.084 71.6391 24.292C71.5431 23.5 71.3751 22.78 71.1351 22.132C70.9191 21.46 70.6191 20.896 70.2351 20.44C69.8751 19.96 69.4311 19.624 68.9031 19.432C68.2551 19.192 67.5351 19.048 66.7431 19C65.9751 18.928 65.2431 18.928 64.5471 19C63.8511 19.048 63.2631 19.156 62.7831 19.324C62.3031 19.492 62.0391 19.684 61.9911 19.9C62.0151 18.772 62.0271 17.86 62.0271 17.164C62.0271 16.468 62.0271 15.916 62.0271 15.508C62.0271 15.076 62.0151 14.752 61.9911 14.536C61.9911 14.296 61.9791 14.08 61.9551 13.888C61.9551 13.672 61.9431 13.444 61.9191 13.204C61.9191 12.94 61.9071 12.568 61.8831 12.088V11.692ZM67.4631 25.66C67.5831 25.996 67.6551 26.344 67.6791 26.704C67.7031 27.064 67.7151 27.412 67.7151 27.748C67.7151 28.348 67.6431 28.936 67.4991 29.512C67.3551 30.064 67.1391 30.568 66.8511 31.024C66.5631 31.456 66.2151 31.804 65.8071 32.068C65.3991 32.332 64.9431 32.464 64.4391 32.464C63.8151 32.464 63.3351 32.332 62.9991 32.068C62.6631 31.804 62.3991 31.444 62.2071 30.988C62.0391 30.532 61.9311 29.992 61.8831 29.368C61.8591 28.72 61.8471 28.012 61.8471 27.244C61.8471 26.308 61.8591 25.576 61.8831 25.048C61.9311 24.496 62.0271 24.076 62.1711 23.788C62.3151 23.5 62.5311 23.32 62.8191 23.248C63.1311 23.152 63.5391 23.104 64.0431 23.104C65.0271 23.104 65.8071 23.32 66.3831 23.752C66.9831 24.184 67.3431 24.82 67.4631 25.66Z" fill="#C4C4C4"/>
<path d="M88.2663 24.544C88.2663 23.248 88.0263 22.084 87.5463 21.052C87.0663 19.996 86.2623 19.228 85.1343 18.748C84.5103 18.604 83.8263 18.496 83.0823 18.424C82.3383 18.328 81.5943 18.28 80.8503 18.28C80.1063 18.28 79.3983 18.316 78.7263 18.388C78.0783 18.46 77.5263 18.556 77.0703 18.676C75.8943 18.988 74.9823 19.588 74.3343 20.476C73.7103 21.364 73.3743 22.336 73.3263 23.392C73.3023 24.424 73.5903 25.432 74.1903 26.416C74.8143 27.376 75.7983 28.084 77.1423 28.54C77.8143 28.828 78.4983 29.032 79.1943 29.152C79.8903 29.272 80.5143 29.416 81.0663 29.584C81.6183 29.728 82.0623 29.944 82.3983 30.232C82.7343 30.52 82.8663 30.952 82.7943 31.528C82.8183 32.224 82.6023 32.704 82.1463 32.968C81.6903 33.232 81.1863 33.34 80.6343 33.292C80.0823 33.22 79.5543 33.016 79.0503 32.68C78.5703 32.32 78.3183 31.864 78.2943 31.312C77.5503 31.312 76.6743 31.3 75.6663 31.276C74.6583 31.228 73.7583 31.252 72.9663 31.348V31.42V31.528C72.9663 32.488 73.1583 33.352 73.5423 34.12C73.9503 34.888 74.5023 35.536 75.1983 36.064C75.9183 36.592 76.7703 36.988 77.7543 37.252C78.7383 37.516 79.8423 37.624 81.0663 37.576C82.4583 37.6 83.7423 37.36 84.9183 36.856C86.0943 36.352 86.9583 35.512 87.5103 34.336C87.9663 33.016 88.1343 31.912 88.0143 31.024C87.8943 30.112 87.5703 29.224 87.0423 28.36C86.4903 27.64 85.6263 27.124 84.4503 26.812C83.2743 26.476 82.0143 26.212 80.6703 26.02C80.1183 25.828 79.6983 25.54 79.4103 25.156C79.1223 24.772 78.9783 24.388 78.9783 24.004C78.9783 23.62 79.1103 23.272 79.3743 22.96C79.6623 22.624 80.0823 22.408 80.6343 22.312C80.9463 22.288 81.2583 22.336 81.5703 22.456C81.9063 22.552 82.1943 22.708 82.4343 22.924C82.6983 23.14 82.8903 23.392 83.0103 23.68C83.1543 23.968 83.1903 24.256 83.1183 24.544C83.9343 24.712 84.7983 24.784 85.7103 24.76C86.6463 24.736 87.4983 24.664 88.2663 24.544Z" fill="#C4C4C4"/>
<path d="M104.041 37.18C104.449 37.18 104.737 37.156 104.905 37.108C105.073 37.06 105.181 37.024 105.229 37V36.28C105.229 35.8 105.217 35.32 105.193 34.84C105.193 34.36 105.193 33.88 105.193 33.4C105.193 32.728 105.193 32.068 105.193 31.42C105.217 30.772 105.229 30.1 105.229 29.404C105.229 28.372 105.229 27.34 105.229 26.308C105.229 25.276 105.217 24.256 105.193 23.248V11.656C104.497 11.512 103.705 11.44 102.817 11.44C101.905 11.44 101.041 11.512 100.225 11.656C100.201 12.256 100.177 12.82 100.153 13.348C100.153 13.852 100.153 14.356 100.153 14.86C100.153 15.724 100.165 16.576 100.189 17.416C100.237 18.232 100.261 19.12 100.261 20.08C100.261 20.488 100.237 20.908 100.189 21.34C100.141 21.772 100.081 22.012 100.009 22.06C99.9854 22.06 99.9014 21.928 99.7574 21.664C99.6134 21.376 99.4334 21.04 99.2174 20.656C99.0254 20.248 98.8094 19.804 98.5694 19.324C98.3294 18.82 98.1014 18.352 97.8854 17.92C97.6694 17.464 97.4774 17.068 97.3094 16.732C97.1414 16.396 97.0334 16.168 96.9854 16.048C96.7694 15.544 96.5774 15.136 96.4094 14.824C96.2654 14.488 96.1214 14.188 95.9774 13.924C95.8574 13.66 95.7254 13.384 95.5814 13.096C95.4374 12.808 95.2814 12.448 95.1134 12.016C95.1134 11.968 94.9814 11.92 94.7174 11.872C94.4774 11.824 94.1894 11.788 93.8534 11.764C93.5174 11.716 93.1814 11.692 92.8454 11.692C92.5094 11.668 92.2694 11.656 92.1254 11.656C91.8374 11.656 91.5494 11.668 91.2614 11.692C90.9974 11.716 90.7454 11.752 90.5054 11.8C90.3854 13.336 90.3014 14.92 90.2534 16.552C90.2054 18.16 90.1814 19.792 90.1814 21.448C90.1814 23.704 90.1934 25.864 90.2174 27.928C90.2654 29.992 90.2894 32.164 90.2894 34.444V36.964C90.8414 36.964 91.4054 37 91.9814 37.072C92.5814 37.144 93.1694 37.18 93.7454 37.18C94.0094 37.18 94.2734 37.168 94.5374 37.144C94.8014 37.12 95.0654 37.072 95.3294 37C95.3054 36.592 95.2934 36.136 95.2934 35.632C95.2934 35.104 95.2934 34.564 95.2934 34.012C95.2934 33.004 95.2934 31.96 95.2934 30.88C95.3174 29.8 95.3414 28.816 95.3654 27.928C95.3894 27.04 95.4134 26.308 95.4374 25.732C95.4854 25.156 95.5214 24.868 95.5454 24.868C95.5934 24.868 95.6534 24.988 95.7254 25.228C95.8214 25.444 95.9174 25.684 96.0134 25.948L96.3734 27.028C96.9254 28.564 97.5854 30.172 98.3534 31.852C99.1454 33.508 99.9374 35.224 100.729 37C101.209 37 101.761 37.024 102.385 37.072C103.009 37.144 103.561 37.18 104.041 37.18Z" fill="#C4C4C4"/>
<path d="M113.835 11.692C112.755 11.716 111.927 11.716 111.351 11.692C110.799 11.644 110.307 11.608 109.875 11.584C109.707 11.584 109.443 11.572 109.083 11.548C108.747 11.5 108.519 11.488 108.399 11.512V11.584C108.183 13.6 108.075 15.664 108.075 17.776C108.099 19.864 108.135 21.988 108.183 24.148C108.255 26.284 108.303 28.444 108.327 30.628C108.351 32.812 108.279 34.984 108.111 37.144C108.351 37.072 108.795 37.048 109.443 37.072C110.091 37.12 110.763 37.156 111.459 37.18C112.179 37.204 112.839 37.192 113.439 37.144C114.063 37.12 114.471 37.012 114.663 36.82C114.543 34.78 114.471 32.716 114.447 30.628C114.423 28.54 114.423 26.452 114.447 24.364C114.495 22.252 114.543 20.152 114.591 18.064C114.663 15.976 114.699 13.9 114.699 11.836V11.692H113.835Z" fill="#C4C4C4"/>
<path d="M133.483 19.324C133.411 17.956 133.099 16.792 132.547 15.832C131.995 14.872 131.287 14.08 130.423 13.456C129.583 12.808 128.611 12.328 127.507 12.016C126.403 11.68 125.263 11.464 124.087 11.368C122.935 11.272 121.771 11.284 120.595 11.404C119.443 11.524 118.375 11.716 117.391 11.98C117.463 13.972 117.499 16.06 117.499 18.244C117.523 20.428 117.535 22.6 117.535 24.76C117.535 26.92 117.535 29.032 117.535 31.096C117.535 33.136 117.571 35.032 117.643 36.784C118.051 36.832 118.531 36.868 119.083 36.892C119.635 36.916 120.187 36.928 120.739 36.928C121.315 36.904 121.855 36.88 122.359 36.856C122.887 36.808 123.319 36.736 123.655 36.64C123.679 36.64 123.691 36.64 123.691 36.64C123.715 36.616 123.739 36.604 123.763 36.604V36.568C123.715 34.816 123.679 33.424 123.655 32.392C123.655 31.36 123.655 30.544 123.655 29.944C123.655 29.32 123.655 28.852 123.655 28.54C123.655 28.204 123.643 27.868 123.619 27.532C124.771 27.724 125.899 27.676 127.003 27.388C128.107 27.076 129.115 26.584 130.027 25.912C130.939 25.24 131.695 24.424 132.295 23.464C132.919 22.504 133.303 21.448 133.447 20.296C133.471 20.152 133.483 20.008 133.483 19.864C133.483 19.696 133.483 19.528 133.483 19.36V19.324ZM127.183 17.812C127.495 18.004 127.735 18.244 127.903 18.532C128.095 18.82 128.215 19.132 128.263 19.468C128.335 19.804 128.323 20.14 128.227 20.476C128.155 20.812 128.023 21.112 127.831 21.376C127.543 21.664 127.195 21.88 126.787 22.024C126.403 22.144 125.995 22.228 125.563 22.276C125.155 22.324 124.735 22.36 124.303 22.384C123.871 22.384 123.463 22.396 123.079 22.42H122.971C122.851 22.06 122.767 21.664 122.719 21.232C122.695 20.776 122.671 20.308 122.647 19.828C122.647 19.348 122.647 18.868 122.647 18.388C122.671 17.908 122.671 17.452 122.647 17.02C122.671 16.996 122.707 16.984 122.755 16.984C123.523 16.792 124.303 16.768 125.095 16.912C125.887 17.032 126.583 17.332 127.183 17.812Z" fill="#C4C4C4"/>
</svg>
