<svg width="210" height="211" viewBox="0 0 210 211" fill="none" xmlns="http://www.w3.org/2000/svg">
<path d="M20.8514 5.38045C21.1483 5.90272 21.6431 7.0517 22.2368 8.93187L21.841 8.93187L22.1379 9.87193L22.2368 10.3942L23.0285 13.6323L23.6222 13.2145C24.2159 14.9902 24.7107 16.8703 25.4034 19.0639L25.0076 19.0639L25.2055 19.8995L25.3045 20.4218L26.1951 23.7643L26.6899 23.4509C27.1846 25.2266 27.6794 27.1068 28.2731 28.987L27.6794 28.987L27.9763 30.0315L28.0752 30.5537L28.8668 33.7918L29.4606 33.374C30.0543 35.2541 30.5491 37.2388 31.0439 39.2234L30.0543 39.2234L30.3512 40.2679L30.4502 40.6857L31.2418 44.0282L32.1324 43.4015C32.6272 45.3861 33.2209 47.3707 33.7157 49.2509L32.8251 49.2509L33.023 50.191L33.122 50.6088L33.9136 53.9513L34.7053 53.3246C35.2 55.3092 35.6948 57.0849 36.1896 58.8606L35.398 58.8606L35.6948 59.9052L35.7938 60.323L36.6844 63.6655L37.3771 63.1432C38.4656 67.4258 39.1583 70.3505 39.2572 71.0817C35.7938 73.0663 33.4188 80.9003 33.023 82.1537L33.3199 82.1537L33.2209 210.029L12.836 210.133L15.7057 82.1537L16.1016 82.1537C15.7057 71.1861 9.47149 63.8744 6.60177 62.8299C3.63309 61.7853 5.61221 55.2047 5.61221 55.2047C5.61221 55.2047 12.5391 30.2404 9.76837 26.3756C7.78925 23.6598 4.42474 23.1375 1.65397 16.2436C-1.11679 9.34968 4.72164 2.56021 8.67988 1.30678C12.5392 0.0533283 18.2786 1.41122 20.8514 5.38045ZM29.5595 67.1125C29.5595 68.5748 30.4502 69.7238 31.7366 70.1416C32.0335 70.246 32.2314 70.2461 32.5282 70.2461C34.2105 70.2461 35.4969 68.8882 35.4969 67.1125C35.4969 65.4412 34.1115 63.9788 32.5282 63.9788C30.846 63.9788 29.5595 65.3368 29.5595 67.1125ZM16.9921 58.8606C16.9921 60.2185 18.0807 61.3675 19.3671 61.3675C19.8619 61.3675 20.2577 61.263 20.5546 60.9497C21.2473 60.5319 21.6431 59.6962 21.6431 58.8606C21.6431 58.025 21.2473 57.1893 20.5546 56.7715C20.1588 56.4582 19.7629 56.3537 19.2682 56.3537C17.9817 56.3537 16.9921 57.5027 16.9921 58.8606ZM27.1846 57.3983C27.1846 58.6517 27.8773 59.6963 28.9658 60.2185C29.3617 60.4274 29.7575 60.5319 30.1533 60.5319C31.7366 60.5319 33.122 59.0695 33.122 57.3983C33.122 55.6226 31.7366 54.2646 30.1533 54.2646C28.4711 54.2646 27.1846 55.6226 27.1846 57.3983ZM23.8201 47.0574C23.8201 48.7286 25.2055 50.191 26.7888 50.191C28.471 50.191 29.7575 48.8331 29.7575 47.0574C29.7575 45.3861 28.3721 43.9238 26.7888 43.9238C25.1065 43.9238 23.8201 45.2817 23.8201 47.0574ZM21.5441 37.1343C21.5441 38.2833 22.1379 39.3278 23.1274 39.8501C23.5232 40.059 24.018 40.2679 24.5128 40.2679C26.0961 40.2679 27.4815 38.8056 27.4815 37.1343C27.4815 35.4631 26.0961 34.0007 24.5128 34.0007C22.8306 34.0007 21.5441 35.3586 21.5441 37.1343ZM18.9713 27.0023C18.9713 28.3602 19.8619 29.5092 20.9504 29.927C21.2472 30.0315 21.5441 30.0315 21.841 30.0315C23.4243 30.0315 24.8097 28.6736 24.8097 26.8979C24.8097 25.2266 23.5232 23.7643 21.841 23.7643C20.2577 23.8687 18.9713 25.2266 18.9713 27.0023ZM16.0026 16.7659C16.0026 17.9149 16.5963 18.9594 17.4869 19.4817C17.8827 19.795 18.3775 19.8995 18.9713 19.8995C20.5545 19.8995 21.9399 18.5416 21.9399 16.7659C21.9399 15.0946 20.5545 13.6323 18.9713 13.6323C17.289 13.7367 15.9036 15.0946 16.0026 16.7659Z" fill="#D55730"/>
<path d="M41.129 55.5291L38.6729 56.3213C38.1953 56.4654 38.0589 57.4736 38.1271 58.6979L36.2167 58.6979L35.3981 58.6979L35.6709 59.7061L35.7392 60.1382L36.5579 63.523L37.3084 63.0188L38.8094 61.9386C39.3552 63.4509 40.1056 64.3872 40.6514 64.2431L43.1076 63.4509C43.7899 63.2349 43.8581 61.2905 43.3123 59.13C42.8347 56.8974 41.8113 55.3131 41.129 55.5291Z" fill="#E8E8E8"/>
<path d="M38.332 46.5991L35.8758 47.2473C35.3982 47.3193 35.2618 48.0395 35.33 49.0477L33.6926 49.0477L32.8056 49.0477L33.0104 49.9839L33.1468 50.416L33.9655 53.7288L34.7842 53.1526L36.3534 52.0004C36.831 52.7925 37.445 53.2967 37.8544 53.1526L40.3105 52.5045C40.9928 52.3604 41.061 50.8481 40.5152 49.1917C40.0376 47.6794 39.0142 46.4551 38.332 46.5991Z" fill="#E8E8E8"/>
<path d="M35.944 36.3004L33.4878 37.0206C33.0102 37.1646 32.8738 38.0288 32.942 39.1091L31.0317 39.1091L30.0083 39.1091L30.2812 40.1893L30.3494 40.6214L31.1682 43.9342L32.1233 43.286L33.6925 42.2058C34.2383 43.5021 34.9888 44.4383 35.5346 44.2222L37.9908 43.5021C38.673 43.286 38.7413 41.5576 38.1955 39.5412C37.6496 37.5247 36.6263 36.0844 35.944 36.3004Z" fill="#E8E8E8"/>
<path d="M33.3514 25.498L30.8953 26.2902C30.4177 26.4343 30.2812 27.5145 30.4177 28.8828L28.3027 28.8828L27.6886 28.8828L27.9616 29.9631L28.098 30.4672L28.9167 33.7079L29.5308 33.2758L31.2364 32.0515C31.7822 33.4198 32.5327 34.3561 33.0103 34.212L35.4664 33.4198C36.1487 33.2038 36.2169 31.2593 35.6711 29.0989C34.9888 26.8664 33.9655 25.282 33.3514 25.498Z" fill="#E8E8E8"/>
<path d="M30.3494 15.7758L27.8932 16.568C27.4157 16.712 27.2792 17.7202 27.3474 18.9445L25.3689 18.9445L24.9595 18.9445L25.1642 19.8087L25.3006 20.3128L26.1193 23.6976L26.5969 23.3375L28.0979 22.2573C28.6437 23.6256 29.326 24.4898 29.8718 24.3458L32.3279 23.5536C33.0102 23.3375 33.0784 21.3931 32.5326 19.2326C31.9868 17.1441 31.0316 15.5597 30.3494 15.7758Z" fill="#E8E8E8"/>
<path d="M27.1428 6.26967L24.6867 6.91782C24.2091 7.06185 24.0726 7.85404 24.1409 8.86227L22.2305 8.86227L21.8212 8.86227L22.0941 9.8705L22.2305 10.3746L23.0492 13.6154L23.6633 13.1833L25.3007 12.031C25.7782 12.8952 26.3923 13.3993 26.8016 13.2553L29.2578 12.6071C29.9401 12.4631 30.0083 10.8787 29.4625 9.07832C28.7802 7.34992 27.7568 6.05362 27.1428 6.26967Z" fill="#E8E8E8"/>
<path fill-rule="evenodd" clip-rule="evenodd" d="M32.5283 63.9793C30.945 63.9793 29.5596 65.3372 29.5596 67.1129C29.5596 68.5752 30.4502 69.7242 31.7366 70.142C32.0335 70.2465 32.2314 70.2465 32.5283 70.2465C34.2105 70.2465 35.4969 68.8886 35.4969 67.1129C35.4969 65.3372 34.1116 63.9793 32.5283 63.9793Z" fill="#E8E8E8"/>
<path d="M26.7331 43.9345C25.0957 43.9345 23.7994 45.3028 23.7994 47.0312C23.7994 48.7596 25.1639 50.1279 26.7331 50.1279C28.3705 50.1279 29.6668 48.7596 29.6668 47.0312C29.6668 45.3028 28.3023 43.8624 26.7331 43.9345Z" fill="#E8E8E8"/>
<path d="M24.4816 33.9241C22.8442 33.9241 21.5479 35.3644 21.5479 37.0208C21.5479 38.173 22.1619 39.2533 23.1171 39.7574C23.5265 39.9735 24.004 40.1175 24.4816 40.1175C26.119 40.1175 27.4153 38.6772 27.4153 37.0208C27.4836 35.3644 26.119 33.9241 24.4816 33.9241Z" fill="#E8E8E8"/>
<path d="M21.8889 23.8416C20.2515 23.8416 18.9552 25.2819 18.9552 26.9383C18.9552 28.3066 19.7739 29.4589 21.002 29.891C21.2749 29.963 21.616 30.035 21.9571 30.035C23.5946 30.035 24.8909 28.6667 24.8909 26.9383C24.8226 25.2099 23.5263 23.8416 21.8889 23.8416Z" fill="#E8E8E8"/>
<path d="M18.8871 13.6877C17.2497 13.6877 15.9534 15.056 15.9534 16.7844C15.9534 17.9367 16.5674 18.9449 17.4543 19.449C17.8637 19.7371 18.4095 19.8811 18.8871 19.8811C20.5245 19.8811 21.8208 18.5128 21.8208 16.7844C21.8208 15.056 20.5245 13.6877 18.8871 13.6877Z" fill="#E8E8E8"/>
<path d="M19.2965 56.3934C18.0002 56.3934 16.9768 57.5456 16.9768 58.914C16.9768 60.2823 18.0685 61.3625 19.3648 61.3625C19.8424 61.3625 20.2517 61.2185 20.5928 61.0025C21.2751 60.5704 21.7527 59.7782 21.6844 58.914C21.6844 58.0498 21.2751 57.2576 20.5928 56.8255C20.2517 56.5374 19.7741 56.3934 19.2965 56.3934Z" fill="#E8E8E8"/>
<path d="M30.1533 54.2647C28.471 54.2647 27.1846 55.7271 27.1846 57.3983C27.1846 58.6518 27.8773 59.6963 28.9658 60.2186C29.3616 60.4275 29.7575 60.5319 30.1533 60.5319C31.7366 60.5319 33.1219 59.0696 33.1219 57.3983C33.023 55.6226 31.7366 54.2647 30.1533 54.2647Z" fill="#E8E8E8"/>
<path d="M66.4585 45.6658C66.414 46.5653 66.3695 47.2624 66.3249 47.7571C66.3249 48.2069 66.3026 48.6341 66.2581 49.0389C66.2581 49.3987 66.2358 49.8035 66.1913 50.2532C66.1913 50.658 66.1913 51.2652 66.1913 52.0747C66.1913 52.8393 66.1913 53.8737 66.1913 55.178C66.1913 56.4823 66.2135 58.1913 66.2581 60.3051C66.169 59.9004 65.679 59.5406 64.7881 59.2257C63.8972 58.9109 62.8059 58.7085 61.5141 58.6186C60.2223 58.4837 58.8414 58.4837 57.3714 58.6186C55.946 58.7085 54.6319 58.9784 53.4292 59.4281C52.4492 59.7879 51.6028 60.4176 50.8901 61.3171C50.2219 62.1716 49.6651 63.2285 49.2197 64.4878C48.8188 65.7021 48.507 67.0514 48.2842 68.5356C48.1061 70.0197 48.017 71.5489 48.017 73.123C48.0615 75.3718 48.1951 77.598 48.4179 79.8018C48.6851 82.0056 49.1751 84.007 49.8879 85.806C50.6451 87.56 51.7587 89.0217 53.2287 90.191C54.6987 91.3154 56.7032 91.9675 59.2423 92.1474C60.4895 92.3273 61.67 92.2374 62.7836 91.8776C63.8972 91.4728 64.7881 90.5958 65.4563 89.2466C65.5899 88.9767 65.7013 88.9092 65.7904 89.0442C65.924 89.1341 66.0354 89.2915 66.1245 89.5164C66.1245 90.0111 66.1245 90.3934 66.1245 90.6633C66.169 90.9331 66.1913 91.2929 66.1913 91.7427C66.1913 91.9675 66.2135 92.125 66.2581 92.2149C67.5944 92.3948 69.0867 92.4398 70.7349 92.3498C72.383 92.3049 73.8975 92.2824 75.2784 92.2824C75.4566 85.806 75.4343 78.9023 75.2116 71.5714C74.9889 64.2405 74.8775 56.8196 74.8775 49.3088V44.8562C74.1648 44.7213 73.3185 44.6538 72.3385 44.6538C71.3585 44.6089 70.423 44.6089 69.5321 44.6538C68.6858 44.6538 67.9508 44.6988 67.3272 44.7888C66.7481 44.8337 66.4585 44.8787 66.4585 44.9237V45.6658ZM56.1019 71.0991C56.3246 69.525 56.9705 68.3332 58.0396 67.5236C59.1532 66.7141 60.6232 66.3093 62.4495 66.3093C63.3849 66.3093 64.1199 66.3993 64.6545 66.5792C65.2336 66.7141 65.6567 67.0514 65.924 67.5911C66.1913 68.1308 66.3472 68.9179 66.3917 69.9523C66.4808 70.9417 66.5254 72.3135 66.5254 74.0675C66.5254 75.5067 66.4808 76.8335 66.3917 78.0478C66.3472 79.2171 66.1467 80.2291 65.7904 81.0836C65.4786 81.9381 64.9886 82.6127 64.3204 83.1075C63.6968 83.6022 62.8281 83.8496 61.7145 83.8496C60.7791 83.8496 59.9327 83.6022 59.1755 83.1075C58.4182 82.6127 57.7723 81.9606 57.2378 81.1511C56.7032 80.2965 56.3023 79.3521 56.035 78.3176C55.7678 77.2382 55.6341 76.1363 55.6341 75.012C55.6341 74.3823 55.6564 73.7302 55.701 73.0556C55.7455 72.3809 55.8791 71.7288 56.1019 71.0991Z" fill="#D55730"/>
<path d="M96.3186 88.7069C96.3631 89.3365 96.3631 89.8987 96.3186 90.3934C96.3186 90.8881 96.3631 91.5178 96.4522 92.2824C96.4522 92.4173 96.6304 92.4848 96.9867 92.4848C97.3431 92.5297 97.744 92.5297 98.1895 92.4848C98.6349 92.4398 99.0804 92.3948 99.5258 92.3498C99.9712 92.2599 100.283 92.2149 100.461 92.2149C100.996 92.1699 101.441 92.1474 101.798 92.1474C102.154 92.1025 102.488 92.08 102.8 92.08C103.112 92.08 103.446 92.1025 103.802 92.1474C104.158 92.1474 104.604 92.1699 105.138 92.2149C105.317 86.2782 105.339 80.5439 105.205 75.012C105.116 69.48 105.072 63.9481 105.072 58.4162C104.003 58.5061 103.112 58.5286 102.399 58.4837C101.686 58.4387 101.04 58.4162 100.461 58.4162C99.8822 58.3712 99.3031 58.3712 98.724 58.4162C98.1895 58.4612 97.5436 58.5961 96.7863 58.821V59.0908C96.5636 60.575 96.4522 62.0592 96.4522 63.5433C96.4967 65.0275 96.5413 66.5342 96.5858 68.0633C96.6749 69.5475 96.7417 71.0542 96.7863 72.5833C96.8308 74.1125 96.8086 75.6416 96.7195 77.1708C96.6304 78.3851 96.3186 79.3071 95.784 79.9367C95.2495 80.5214 94.6481 80.9262 93.98 81.1511C93.3118 81.331 92.6213 81.3759 91.9086 81.286C91.2405 81.1511 90.7282 80.9936 90.3718 80.8137C90.3273 80.7688 90.2827 80.7463 90.2382 80.7463C90.1937 80.7463 90.1491 80.7238 90.1046 80.6788C89.7482 80.409 89.4587 80.0267 89.2359 79.532C89.0578 79.0372 88.9019 78.475 88.7682 77.8454C88.6791 77.2157 88.6123 76.5861 88.5678 75.9564C88.5232 75.2818 88.4787 74.6747 88.4341 74.135C88.345 72.9206 88.2782 71.6164 88.2337 70.2221C88.2337 68.8279 88.2337 67.4337 88.2337 66.0395C88.2782 64.6452 88.3005 63.296 88.3005 61.9917C88.3005 60.6874 88.256 59.5181 88.1669 58.4837C86.6078 58.4837 85.2046 58.4837 83.9574 58.4837C82.7547 58.4387 81.3738 58.5286 79.8147 58.7535C79.9038 60.2827 79.9261 62.0592 79.8815 64.083C79.837 66.1069 79.7924 68.2207 79.7479 70.4245C79.7033 72.5833 79.6588 74.7421 79.6142 76.9009C79.6142 79.0147 79.6365 80.9712 79.6811 82.7702C79.7702 84.5692 79.9261 86.1208 80.1488 87.4251C80.4161 88.6844 80.7724 89.5164 81.2179 89.9212C82.1533 90.7307 83.2001 91.2929 84.3583 91.6077C85.5164 91.9226 86.6969 92.0575 87.8996 92.0125C89.1468 91.9675 90.3496 91.7427 91.5077 91.3379C92.6659 90.9331 93.7127 90.3934 94.6481 89.7188C94.8709 89.5389 95.1381 89.359 95.4499 89.1791C95.8063 88.9992 96.0958 88.8418 96.3186 88.7069Z" fill="#D55730"/>
<path d="M118.782 44.9237C118.782 44.8787 118.47 44.8337 117.847 44.7888C117.268 44.6988 116.533 44.6538 115.642 44.6538C114.795 44.6089 113.882 44.6089 112.902 44.6538C111.922 44.6538 111.076 44.7213 110.363 44.8562V49.3088C110.363 53.0417 110.319 56.7746 110.23 60.5075C110.141 64.2405 110.051 67.9284 109.962 71.5714C109.918 75.1694 109.873 78.7224 109.829 82.2305C109.829 85.6935 109.873 89.0442 109.962 92.2824C111.343 92.2824 112.858 92.3049 114.506 92.3498C116.154 92.4398 117.646 92.3948 118.983 92.2149C119.027 92.125 119.05 91.9675 119.05 91.7427C119.05 91.2929 119.05 90.9331 119.05 90.6633C119.094 90.3934 119.116 90.0111 119.116 89.5164C119.205 89.2915 119.295 89.1341 119.384 89.0442C119.517 88.9092 119.651 88.9767 119.784 89.2466C120.453 90.5958 121.344 91.4728 122.457 91.8776C123.571 92.2374 124.751 92.3273 125.999 92.1474C128.538 91.9675 130.542 91.3154 132.012 90.191C133.482 89.0217 134.573 87.56 135.286 85.806C136.043 84.007 136.533 82.0056 136.756 79.8018C136.979 77.598 137.135 75.3718 137.224 73.123C137.224 71.5489 137.112 70.0197 136.89 68.5356C136.712 67.0514 136.4 65.7021 135.954 64.4878C135.553 63.2285 134.997 62.1716 134.284 61.3171C133.616 60.4176 132.792 59.7879 131.812 59.4281C130.609 58.9784 129.273 58.7085 127.803 58.6186C126.377 58.4837 125.019 58.4837 123.727 58.6186C122.435 58.7085 121.344 58.9109 120.453 59.2257C119.562 59.5406 119.072 59.9004 118.983 60.3051C119.027 58.1913 119.05 56.4823 119.05 55.178C119.05 53.8737 119.05 52.8393 119.05 52.0747C119.05 51.2652 119.027 50.658 118.983 50.2532C118.983 49.8035 118.96 49.3987 118.916 49.0389C118.916 48.6341 118.894 48.2069 118.849 47.7571C118.849 47.2624 118.827 46.5653 118.782 45.6658V44.9237ZM129.139 71.0991C129.362 71.7288 129.495 72.3809 129.54 73.0556C129.584 73.7302 129.607 74.3823 129.607 75.012C129.607 76.1363 129.473 77.2382 129.206 78.3176C128.938 79.3521 128.538 80.2965 128.003 81.1511C127.468 81.9606 126.823 82.6127 126.065 83.1075C125.308 83.6022 124.462 83.8496 123.526 83.8496C122.368 83.8496 121.477 83.6022 120.854 83.1075C120.23 82.6127 119.74 81.9381 119.384 81.0836C119.072 80.2291 118.871 79.2171 118.782 78.0478C118.738 76.8335 118.715 75.5067 118.715 74.0675C118.715 72.3135 118.738 70.9417 118.782 69.9523C118.871 68.9179 119.05 68.1308 119.317 67.5911C119.584 67.0514 119.985 66.7141 120.519 66.5792C121.099 66.3993 121.856 66.3093 122.791 66.3093C124.618 66.3093 126.065 66.7141 127.134 67.5236C128.248 68.3332 128.916 69.525 129.139 71.0991Z" fill="#D55730"/>
<path d="M167.75 69.0078C167.75 66.5792 167.305 64.3979 166.414 62.4639C165.523 60.485 164.031 59.0458 161.937 58.1463C160.779 57.8765 159.51 57.6741 158.129 57.5392C156.748 57.3593 155.367 57.2693 153.986 57.2693C152.605 57.2693 151.291 57.3368 150.044 57.4717C148.841 57.6066 147.817 57.7865 146.97 58.0114C144.788 58.5961 143.095 59.7205 141.892 61.3845C140.734 63.0486 140.11 64.8701 140.021 66.849C139.977 68.7829 140.511 70.6719 141.625 72.5159C142.783 74.3149 144.609 75.6416 147.104 76.4961C148.351 77.0358 149.621 77.4181 150.912 77.643C152.204 77.8679 153.362 78.1377 154.387 78.4526C155.412 78.7224 156.236 79.1272 156.859 79.6669C157.483 80.2066 157.728 81.0161 157.594 82.0955C157.639 83.3998 157.238 84.2993 156.391 84.794C155.545 85.2888 154.61 85.4911 153.585 85.4012C152.561 85.2663 151.581 84.884 150.645 84.2543C149.754 83.5797 149.287 82.7252 149.242 81.6908C147.861 81.6908 146.235 81.6683 144.364 81.6233C142.493 81.5333 140.823 81.5783 139.353 81.7582V81.8931V82.0955C139.353 83.8945 139.709 85.5136 140.422 86.9528C141.179 88.392 142.204 89.6063 143.496 90.5958C144.832 91.5852 146.413 92.3273 148.24 92.8221C150.066 93.3168 152.115 93.5192 154.387 93.4292C156.971 93.4742 159.354 93.0244 161.536 92.08C163.719 91.1355 165.323 89.5614 166.347 87.3576C167.194 84.884 167.505 82.8151 167.283 81.1511C167.06 79.442 166.459 77.7779 165.479 76.1588C164.454 74.8096 162.851 73.8426 160.668 73.2579C158.485 72.6283 156.147 72.1336 153.652 71.7738C152.627 71.414 151.848 70.8743 151.313 70.1547C150.779 69.4351 150.512 68.7155 150.512 67.9959C150.512 67.2763 150.757 66.6241 151.247 66.0395C151.781 65.4098 152.561 65.005 153.585 64.8251C154.164 64.7802 154.743 64.8701 155.322 65.095C155.946 65.2749 156.481 65.5672 156.926 65.972C157.416 66.3768 157.772 66.849 157.995 67.3887C158.262 67.9284 158.329 68.4681 158.196 69.0078C159.71 69.3226 161.314 69.4576 163.006 69.4126C164.744 69.3676 166.325 69.2327 167.75 69.0078Z" fill="#D55730"/>
<path d="M99.6161 195.077C101.135 195.077 102.207 194.985 102.833 194.802C103.458 194.618 103.86 194.481 104.039 194.389V191.635C104.039 189.8 103.994 187.964 103.905 186.129C103.905 184.293 103.905 182.458 103.905 180.622C103.905 178.052 103.905 175.529 103.905 173.051C103.994 170.573 104.039 168.003 104.039 165.341C104.039 161.395 104.039 157.448 104.039 153.502C104.039 149.555 103.994 145.655 103.905 141.8V97.4716C101.314 96.921 98.3652 96.6456 95.0593 96.6456C91.664 96.6456 88.4475 96.921 85.4096 97.4716C85.3202 99.7661 85.2309 101.923 85.1415 103.942C85.1415 105.869 85.1415 107.797 85.1415 109.724C85.1415 113.028 85.1862 116.286 85.2756 119.498C85.4543 122.619 85.5436 126.014 85.5436 129.686C85.5436 131.246 85.4543 132.852 85.2756 134.504C85.0969 136.156 84.8735 137.074 84.6054 137.257C84.5161 137.257 84.2034 136.752 83.6673 135.743C83.1312 134.642 82.4611 133.357 81.6569 131.888C80.9421 130.328 80.138 128.63 79.2445 126.795C78.351 124.867 77.5022 123.078 76.6981 121.426C75.8939 119.682 75.1791 118.167 74.5537 116.883C73.9282 115.598 73.5262 114.726 73.3475 114.267C72.5433 112.34 71.8285 110.779 71.2031 109.586C70.667 108.301 70.1309 107.154 69.5948 106.145C69.148 105.135 68.6566 104.08 68.1205 102.978C67.5844 101.877 67.0037 100.5 66.3782 98.8483C66.3782 98.6647 65.8868 98.4812 64.904 98.2976C64.0105 98.1141 62.9383 97.9764 61.6874 97.8846C60.4365 97.7011 59.1856 97.6093 57.9347 97.6093C56.6838 97.5175 55.7903 97.4716 55.2543 97.4716C54.1821 97.4716 53.1099 97.5175 52.0377 97.6093C51.0548 97.7011 50.1167 97.8387 49.2232 98.0223C48.7764 103.896 48.4637 109.953 48.285 116.194C48.1063 122.343 48.017 128.584 48.017 134.917C48.017 143.544 48.0616 151.804 48.151 159.697C48.3297 167.59 48.419 175.896 48.419 184.615V194.251C50.4741 194.251 52.5738 194.389 54.7182 194.664C56.9519 194.939 59.1409 195.077 61.2853 195.077C62.2682 195.077 63.251 195.031 64.2338 194.939C65.2167 194.848 66.1995 194.664 67.1824 194.389C67.093 192.829 67.0483 191.085 67.0483 189.157C67.0483 187.138 67.0483 185.073 67.0483 182.963C67.0483 179.108 67.0483 175.116 67.0483 170.986C67.1377 166.856 67.227 163.093 67.3164 159.697C67.4057 156.301 67.4951 153.502 67.5844 151.299C67.7631 149.097 67.8972 147.995 67.9865 147.995C68.1652 147.995 68.3886 148.454 68.6566 149.372C69.014 150.198 69.3714 151.116 69.7288 152.125L71.0691 156.255C73.1241 162.129 75.5812 168.278 78.4404 174.703C81.3889 181.035 84.3374 187.597 87.2859 194.389C89.0729 194.389 91.1279 194.481 93.451 194.664C95.7741 194.939 97.8291 195.077 99.6161 195.077Z" fill="#393841"/>
<path d="M136.077 97.6093C132.056 97.7011 128.974 97.7011 126.829 97.6093C124.774 97.4257 122.943 97.2881 121.334 97.1963C120.709 97.1963 119.726 97.1504 118.386 97.0586C117.135 96.8751 116.286 96.8292 115.839 96.921V97.1963C115.035 104.906 114.633 112.798 114.633 120.875C114.722 128.86 114.856 136.982 115.035 145.242C115.303 153.41 115.482 161.67 115.571 170.022C115.661 178.374 115.393 186.68 114.767 194.939C115.661 194.664 117.314 194.572 119.726 194.664C122.138 194.848 124.64 194.985 127.231 195.077C129.912 195.169 132.369 195.123 134.603 194.939C136.926 194.848 138.445 194.435 139.159 193.7C138.713 185.899 138.445 178.007 138.355 170.022C138.266 162.037 138.266 154.053 138.355 146.068C138.534 137.991 138.713 129.961 138.891 121.976C139.159 113.992 139.293 106.053 139.293 98.1599V97.6093H136.077Z" fill="#393841"/>
<path d="M209.222 126.795C208.954 121.563 207.793 117.112 205.738 113.441C203.683 109.77 201.047 106.741 197.83 104.355C194.703 101.877 191.085 100.041 186.974 98.8483C182.864 97.5634 178.62 96.7374 174.242 96.3703C169.953 96.0032 165.62 96.0491 161.242 96.508C156.953 96.9668 152.977 97.7011 149.314 98.7106C149.582 106.328 149.716 114.313 149.716 122.665C149.805 131.016 149.85 139.322 149.85 147.582C149.85 155.842 149.85 163.919 149.85 171.812C149.85 179.613 149.984 186.863 150.252 193.563C151.771 193.746 153.558 193.884 155.613 193.976C157.668 194.068 159.723 194.113 161.778 194.113C163.922 194.022 165.933 193.93 167.809 193.838C169.775 193.655 171.383 193.379 172.634 193.012C172.723 193.012 172.768 193.012 172.768 193.012C172.857 192.92 172.947 192.874 173.036 192.874V192.737C172.857 186.037 172.723 180.714 172.634 176.768C172.634 172.821 172.634 169.701 172.634 167.406C172.634 165.02 172.634 163.23 172.634 162.037C172.634 160.752 172.589 159.467 172.5 158.183C176.789 158.917 180.988 158.733 185.098 157.632C189.208 156.439 192.961 154.557 196.356 151.988C199.751 149.418 202.566 146.297 204.8 142.626C207.123 138.955 208.552 134.917 209.088 130.512C209.178 129.961 209.222 129.41 209.222 128.86C209.222 128.217 209.222 127.575 209.222 126.932V126.795ZM185.768 121.013C186.93 121.747 187.823 122.665 188.449 123.766C189.163 124.867 189.61 126.06 189.789 127.345C190.057 128.63 190.012 129.915 189.655 131.2C189.387 132.485 188.895 133.632 188.181 134.642C187.108 135.743 185.813 136.569 184.294 137.12C182.864 137.578 181.345 137.9 179.737 138.083C178.218 138.267 176.655 138.404 175.046 138.496C173.438 138.496 171.919 138.542 170.49 138.634H170.087C169.641 137.257 169.328 135.743 169.149 134.091C169.06 132.347 168.971 130.557 168.881 128.722C168.881 126.886 168.881 125.051 168.881 123.215C168.971 121.38 168.971 119.636 168.881 117.984C168.971 117.892 169.105 117.846 169.283 117.846C172.142 117.112 175.046 117.02 177.995 117.571C180.943 118.03 183.535 119.177 185.768 121.013Z" fill="#393841"/>
</svg>
