<svg width="209" height="211" viewBox="0 0 209 211" fill="none" xmlns="http://www.w3.org/2000/svg">
<path d="M20.418 5.38043C20.7149 5.90269 21.2097 7.05168 21.8034 8.93184L21.4076 8.93184L21.7044 9.87192L21.8034 10.3942L22.5951 13.6323L23.1888 13.2144C23.7825 14.9902 24.2773 16.8703 24.97 19.0638L24.5742 19.0638L24.7721 19.8995L24.871 20.4217L25.7617 23.7643L26.2565 23.4509C26.7512 25.2266 27.246 27.1068 27.8397 28.9869L27.246 28.9869L27.5429 30.0315L27.6418 30.5537L28.4334 33.7918L29.0272 33.374C29.6209 35.2541 30.1157 37.2388 30.6105 39.2234L29.6209 39.2234L29.9178 40.2679L30.0168 40.6857L30.8084 44.0282L31.699 43.4015C32.1938 45.3861 32.7875 47.3707 33.2823 49.2509L32.3917 49.2509L32.5896 50.191L32.6886 50.6088L33.4802 53.9513L34.2719 53.3246C34.7666 55.3092 35.2614 57.0849 35.7562 58.8606L34.9646 58.8606L35.2614 59.9051L35.3603 60.323L36.251 63.6655L36.9437 63.1432C38.0322 67.4258 38.7248 70.3505 38.8238 71.0816C35.3603 73.0663 32.9854 80.9003 32.5896 82.1537L32.8864 82.1537L32.7875 210.029L12.4026 210.133L15.2723 82.1537L15.6682 82.1537C15.2723 71.1861 9.03808 63.8744 6.16836 62.8298C3.19968 61.7853 5.1788 55.2047 5.1788 55.2047C5.1788 55.2047 12.1057 30.2404 9.33496 26.3756C7.35584 23.6598 3.99133 23.1375 1.22056 16.2436C-1.5502 9.34967 4.28823 2.56019 8.24647 1.30675C12.1057 0.053313 17.8452 1.41119 20.418 5.38043ZM29.1261 67.1125C29.1261 68.5748 30.0167 69.7238 31.3032 70.1416C31.6 70.246 31.7979 70.2461 32.0948 70.2461C33.7771 70.2461 35.0635 68.8882 35.0635 67.1125C35.0635 65.4412 33.6781 63.9788 32.0948 63.9788C30.4126 63.9788 29.1261 65.3367 29.1261 67.1125ZM16.5587 58.8606C16.5587 60.2185 17.6473 61.3675 18.9337 61.3675C19.4285 61.3675 19.8243 61.263 20.1212 60.9497C20.8139 60.5318 21.2097 59.6962 21.2097 58.8606C21.2097 58.0249 20.8139 57.1893 20.1212 56.7715C19.7253 56.4582 19.3295 56.3537 18.8348 56.3537C17.5483 56.3537 16.5587 57.5027 16.5587 58.8606ZM26.7512 57.3982C26.7512 58.6517 27.4439 59.6962 28.5324 60.2185C28.9282 60.4274 29.3241 60.5319 29.7199 60.5319C31.3032 60.5319 32.6886 59.0695 32.6886 57.3982C32.6886 55.6225 31.3032 54.2646 29.7199 54.2646C28.0377 54.2646 26.7512 55.6225 26.7512 57.3982ZM23.3867 47.0574C23.3867 48.7286 24.7721 50.191 26.3554 50.191C28.0376 50.191 29.3241 48.8331 29.3241 47.0574C29.3241 45.3861 27.9387 43.9238 26.3554 43.9238C24.6731 43.9238 23.3867 45.2817 23.3867 47.0574ZM21.1107 37.1343C21.1107 38.2833 21.7044 39.3278 22.694 39.8501C23.0898 40.059 23.5846 40.2679 24.0794 40.2679C25.6627 40.2679 27.0481 38.8055 27.0481 37.1343C27.0481 35.463 25.6627 34.0007 24.0794 34.0007C22.3972 34.0007 21.1107 35.3586 21.1107 37.1343ZM18.5378 27.0023C18.5378 28.3602 19.4284 29.5092 20.517 29.927C20.8138 30.0314 21.1107 30.0315 21.4076 30.0315C22.9909 30.0315 24.3763 28.6736 24.3763 26.8979C24.3763 25.2266 23.0898 23.7643 21.4076 23.7643C19.8243 23.8687 18.5378 25.2266 18.5378 27.0023ZM15.5692 16.7659C15.5692 17.9148 16.1629 18.9594 17.0535 19.4817C17.4493 19.795 17.9441 19.8995 18.5378 19.8995C20.1211 19.8995 21.5065 18.5416 21.5065 16.7659C21.5065 15.0946 20.1211 13.6323 18.5378 13.6323C16.8556 13.7367 15.4702 15.0946 15.5692 16.7659Z" fill="#D55730"/>
<path d="M40.6956 55.5291L38.2395 56.3213C37.7619 56.4654 37.6255 57.4736 37.6937 58.6979L35.7833 58.6979L34.9647 58.6979L35.2375 59.7061L35.3058 60.1382L36.1245 63.523L36.875 63.0188L38.376 61.9386C38.9218 63.4509 39.6722 64.3872 40.218 64.2431L42.6742 63.4509C43.3565 63.2349 43.4247 61.2905 42.8789 59.13C42.4013 56.8974 41.3779 55.3131 40.6956 55.5291Z" fill="#CCD8CE"/>
<path d="M37.8986 46.5991L35.4424 47.2473C34.9648 47.3193 34.8284 48.0395 34.8966 49.0477L33.2592 49.0477L32.3722 49.0477L32.5769 49.9839L32.7134 50.416L33.5321 53.7288L34.3508 53.1526L35.92 52.0004C36.3976 52.7925 37.0116 53.2967 37.421 53.1526L39.8771 52.5045C40.5594 52.3604 40.6276 50.8481 40.0818 49.1917C39.6042 47.6794 38.5808 46.4551 37.8986 46.5991Z" fill="#CCD8CE"/>
<path d="M35.5106 36.3004L33.0544 37.0206C32.5768 37.1646 32.4404 38.0288 32.5086 39.1091L30.5983 39.1091L29.5749 39.1091L29.8478 40.1893L29.916 40.6214L30.7347 43.9342L31.6899 43.286L33.2591 42.2058C33.8049 43.5021 34.5554 44.4383 35.1012 44.2222L37.5574 43.5021C38.2396 43.286 38.3078 41.5576 37.762 39.5412C37.2162 37.5247 36.1928 36.0844 35.5106 36.3004Z" fill="#CCD8CE"/>
<path d="M32.918 25.498L30.4619 26.2902C29.9843 26.4343 29.8478 27.5145 29.9843 28.8828L27.8693 28.8828L27.2552 28.8828L27.5282 29.9631L27.6646 30.4672L28.4833 33.7079L29.0973 33.2758L30.803 32.0515C31.3488 33.4198 32.0993 34.3561 32.5769 34.212L35.033 33.4198C35.7153 33.2038 35.7835 31.2593 35.2377 29.0989C34.5554 26.8664 33.5321 25.282 32.918 25.498Z" fill="#CCD8CE"/>
<path d="M29.9159 15.7758L27.4598 16.568C26.9822 16.712 26.8458 17.7202 26.914 18.9445L24.9354 18.9445L24.5261 18.9445L24.7308 19.8087L24.8672 20.3128L25.6859 23.6976L26.1635 23.3375L27.6645 22.2573C28.2103 23.6256 28.8925 24.4898 29.4384 24.3458L31.8945 23.5536C32.5768 23.3375 32.645 21.3931 32.0992 19.2326C31.5534 17.1441 30.5982 15.5597 29.9159 15.7758Z" fill="#CCD8CE"/>
<path d="M26.7094 6.26967L24.2532 6.91782C23.7757 7.06185 23.6392 7.85404 23.7074 8.86227L21.7971 8.86227L21.3877 8.86227L21.6607 9.8705L21.7971 10.3746L22.6158 13.6154L23.2299 13.1833L24.8673 12.031C25.3448 12.8952 25.9589 13.3993 26.3682 13.2553L28.8244 12.6071C29.5067 12.4631 29.5749 10.8787 29.0291 9.07832C28.3468 7.34992 27.3234 6.05362 26.7094 6.26967Z" fill="#CCD8CE"/>
<path fill-rule="evenodd" clip-rule="evenodd" d="M32.0949 63.9793C30.5116 63.9793 29.1262 65.3372 29.1262 67.1129C29.1262 68.5752 30.0168 69.7242 31.3032 70.142C31.6001 70.2465 31.798 70.2465 32.0949 70.2465C33.7771 70.2465 35.0635 68.8886 35.0635 67.1129C35.0635 65.3372 33.6782 63.9793 32.0949 63.9793Z" fill="#CCD8CE"/>
<path d="M26.2998 43.9345C24.6624 43.9345 23.3661 45.3028 23.3661 47.0312C23.3661 48.7596 24.7306 50.1279 26.2998 50.1279C27.9372 50.1279 29.2335 48.7596 29.2335 47.0312C29.2335 45.3028 27.869 43.8624 26.2998 43.9345Z" fill="#CCD8CE"/>
<path d="M24.0483 33.9241C22.4109 33.9241 21.1146 35.3644 21.1146 37.0208C21.1146 38.173 21.7286 39.2533 22.6838 39.7574C23.0932 39.9735 23.5707 40.1175 24.0483 40.1175C25.6858 40.1175 26.982 38.6772 26.982 37.0208C27.0503 35.3644 25.6858 33.9241 24.0483 33.9241Z" fill="#CCD8CE"/>
<path d="M21.4555 23.8416C19.8181 23.8416 18.5218 25.2819 18.5218 26.9383C18.5218 28.3066 19.3405 29.4589 20.5686 29.891C20.8415 29.963 21.1827 30.035 21.5238 30.035C23.1612 30.035 24.4575 28.6667 24.4575 26.9383C24.3893 25.2099 23.093 23.8416 21.4555 23.8416Z" fill="#CCD8CE"/>
<path d="M18.4537 13.6877C16.8163 13.6877 15.52 15.056 15.52 16.7844C15.52 17.9367 16.134 18.9449 17.021 19.449C17.4303 19.7371 17.9762 19.8811 18.4537 19.8811C20.0912 19.8811 21.3875 18.5128 21.3875 16.7844C21.3875 15.056 20.0912 13.6877 18.4537 13.6877Z" fill="#CCD8CE"/>
<path d="M18.8632 56.3934C17.5669 56.3934 16.5435 57.5456 16.5435 58.914C16.5435 60.2823 17.6351 61.3625 18.9314 61.3625C19.409 61.3625 19.8184 61.2185 20.1595 61.0025C20.8417 60.5704 21.3193 59.7782 21.2511 58.914C21.2511 58.0498 20.8417 57.2576 20.1595 56.8255C19.8184 56.5374 19.3408 56.3934 18.8632 56.3934Z" fill="#CCD8CE"/>
<path d="M29.7199 54.2647C28.0376 54.2647 26.7512 55.7271 26.7512 57.3983C26.7512 58.6518 27.4439 59.6963 28.5324 60.2186C28.9282 60.4275 29.324 60.5319 29.7199 60.5319C31.3032 60.5319 32.6885 59.0696 32.6885 57.3983C32.5896 55.6226 31.3032 54.2647 29.7199 54.2647Z" fill="#CCD8CE"/>
<path d="M66.0251 45.6658C65.9805 46.5653 65.936 47.2625 65.8914 47.7572C65.8914 48.2069 65.8692 48.6342 65.8246 49.039C65.8246 49.3988 65.8024 49.8035 65.7578 50.2533C65.7578 50.6581 65.7578 51.2652 65.7578 52.0748C65.7578 52.8394 65.7578 53.8738 65.7578 55.1781C65.7578 56.4823 65.7801 58.1914 65.8246 60.3052C65.7355 59.9004 65.2455 59.5406 64.3546 59.2258C63.4637 58.911 62.3724 58.7086 61.0806 58.6186C59.7888 58.4837 58.4079 58.4837 56.9379 58.6186C55.5125 58.7086 54.1984 58.9784 52.9957 59.4282C52.0157 59.788 51.1694 60.4176 50.4566 61.3171C49.7885 62.1717 49.2317 63.2286 48.7862 64.4879C48.3853 65.7022 48.0735 67.0515 47.8508 68.5356C47.6726 70.0198 47.5835 71.549 47.5835 73.1231C47.628 75.3718 47.7617 77.5981 47.9844 79.8019C48.2517 82.0056 48.7417 84.007 49.4544 85.806C50.2116 87.5601 51.3253 89.0217 52.7952 90.1911C54.2652 91.3155 56.2697 91.9676 58.8088 92.1475C60.0561 92.3274 61.2365 92.2374 62.3501 91.8777C63.4637 91.4729 64.3546 90.5959 65.0228 89.2466C65.1565 88.9768 65.2678 88.9093 65.3569 89.0442C65.4905 89.1342 65.6019 89.2916 65.691 89.5165C65.691 90.0112 65.691 90.3935 65.691 90.6633C65.7355 90.9332 65.7578 91.293 65.7578 91.7427C65.7578 91.9676 65.7801 92.125 65.8246 92.215C67.161 92.3949 68.6532 92.4398 70.3014 92.3499C71.9495 92.3049 73.4641 92.2824 74.845 92.2824C75.0231 85.806 75.0009 78.9024 74.7782 71.5714C74.5554 64.2405 74.4441 56.8196 74.4441 49.3088V44.8563C73.7313 44.7214 72.885 44.6539 71.905 44.6539C70.925 44.6089 69.9896 44.6089 69.0987 44.6539C68.2523 44.6539 67.5173 44.6989 66.8937 44.7888C66.3146 44.8338 66.0251 44.8788 66.0251 44.9238V45.6658ZM55.6684 71.0992C55.8911 69.5251 56.537 68.3332 57.6061 67.5237C58.7197 66.7141 60.1897 66.3094 62.016 66.3094C62.9515 66.3094 63.6865 66.3993 64.221 66.5792C64.8001 66.7141 65.2233 67.0515 65.4905 67.5912C65.7578 68.1309 65.9137 68.9179 65.9583 69.9523C66.0473 70.9418 66.0919 72.3135 66.0919 74.0676C66.0919 75.5068 66.0473 76.8335 65.9583 78.0478C65.9137 79.2172 65.7133 80.2291 65.3569 81.0837C65.0451 81.9382 64.5551 82.6128 63.8869 83.1075C63.2633 83.6023 62.3947 83.8496 61.281 83.8496C60.3456 83.8496 59.4993 83.6023 58.742 83.1075C57.9847 82.6128 57.3388 81.9607 56.8043 81.1511C56.2697 80.2966 55.8688 79.3521 55.6016 78.3177C55.3343 77.2383 55.2007 76.1364 55.2007 75.012C55.2007 74.3824 55.2229 73.7302 55.2675 73.0556C55.312 72.381 55.4457 71.7289 55.6684 71.0992Z" fill="#D55730"/>
<path d="M95.8851 88.7069C95.9297 89.3366 95.9297 89.8988 95.8851 90.3935C95.8851 90.8882 95.9297 91.5178 96.0187 92.2824C96.0187 92.4173 96.1969 92.4848 96.5533 92.4848C96.9096 92.5298 97.3105 92.5298 97.756 92.4848C98.2014 92.4398 98.6469 92.3949 99.0923 92.3499C99.5378 92.2599 99.8496 92.215 100.028 92.215C100.562 92.17 101.008 92.1475 101.364 92.1475C101.72 92.1025 102.055 92.08 102.366 92.08C102.678 92.08 103.012 92.1025 103.369 92.1475C103.725 92.1475 104.17 92.17 104.705 92.215C104.883 86.2783 104.905 80.544 104.772 75.012C104.683 69.4801 104.638 63.9482 104.638 58.4163C103.569 58.5062 102.678 58.5287 101.965 58.4837C101.253 58.4387 100.607 58.4163 100.028 58.4163C99.4487 58.3713 98.8696 58.3713 98.2905 58.4163C97.756 58.4612 97.1101 58.5962 96.3528 58.821V59.0909C96.1301 60.5751 96.0187 62.0592 96.0187 63.5434C96.0633 65.0276 96.1078 66.5342 96.1524 68.0634C96.2415 69.5476 96.3083 71.0542 96.3528 72.5834C96.3974 74.1125 96.3751 75.6417 96.286 77.1708C96.1969 78.3852 95.8851 79.3071 95.3506 79.9368C94.816 80.5215 94.2147 80.9262 93.5465 81.1511C92.8783 81.331 92.1879 81.376 91.4752 81.286C90.807 81.1511 90.2947 80.9937 89.9384 80.8138C89.8938 80.7688 89.8493 80.7463 89.8047 80.7463C89.7602 80.7463 89.7156 80.7239 89.6711 80.6789C89.3147 80.409 89.0252 80.0267 88.8025 79.532C88.6243 79.0373 88.4684 78.4751 88.3348 77.8455C88.2457 77.2158 88.1788 76.5862 88.1343 75.9565C88.0898 75.2819 88.0452 74.6747 88.0007 74.135C87.9116 72.9207 87.8448 71.6164 87.8002 70.2222C87.8002 68.828 87.8002 67.4337 87.8002 66.0395C87.8448 64.6453 87.867 63.296 87.867 61.9918C87.867 60.6875 87.8225 59.5181 87.7334 58.4837C86.1743 58.4837 84.7712 58.4837 83.5239 58.4837C82.3212 58.4387 80.9403 58.5287 79.3812 58.7536C79.4703 60.2827 79.4926 62.0592 79.4481 64.0831C79.4035 66.107 79.359 68.2208 79.3144 70.4246C79.2699 72.5834 79.2253 74.7422 79.1808 76.901C79.1808 79.0148 79.2031 80.9712 79.2476 82.7702C79.3367 84.5692 79.4926 86.1208 79.7153 87.4251C79.9826 88.6844 80.3389 89.5165 80.7844 89.9212C81.7198 90.7308 82.7666 91.293 83.9248 91.6078C85.083 91.9226 86.2634 92.0575 87.4661 92.0126C88.7134 91.9676 89.9161 91.7427 91.0743 91.3379C92.2324 90.9332 93.2792 90.3935 94.2147 89.7188C94.4374 89.5389 94.7047 89.3591 95.0165 89.1791C95.3728 88.9993 95.6624 88.8418 95.8851 88.7069Z" fill="#D55730"/>
<path d="M118.349 44.9238C118.349 44.8788 118.037 44.8338 117.413 44.7888C116.834 44.6989 116.099 44.6539 115.208 44.6539C114.362 44.6089 113.449 44.6089 112.469 44.6539C111.489 44.6539 110.643 44.7214 109.93 44.8563V49.3088C109.93 53.0417 109.885 56.7747 109.796 60.5076C109.707 64.2405 109.618 67.9285 109.529 71.5714C109.484 75.1694 109.44 78.7225 109.395 82.2305C109.395 85.6936 109.44 89.0442 109.529 92.2824C110.91 92.2824 112.424 92.3049 114.072 92.3499C115.721 92.4398 117.213 92.3949 118.549 92.215C118.594 92.125 118.616 91.9676 118.616 91.7427C118.616 91.293 118.616 90.9332 118.616 90.6633C118.661 90.3935 118.683 90.0112 118.683 89.5165C118.772 89.2916 118.861 89.1342 118.95 89.0442C119.084 88.9093 119.217 88.9768 119.351 89.2466C120.019 90.5959 120.91 91.4729 122.024 91.8777C123.137 92.2374 124.318 92.3274 125.565 92.1475C128.104 91.9676 130.109 91.3155 131.579 90.1911C133.049 89.0217 134.14 87.5601 134.853 85.806C135.61 84.007 136.1 82.0056 136.323 79.8019C136.545 77.5981 136.701 75.3718 136.79 73.1231C136.79 71.549 136.679 70.0198 136.456 68.5356C136.278 67.0515 135.966 65.7022 135.521 64.4879C135.12 63.2286 134.563 62.1717 133.85 61.3171C133.182 60.4176 132.358 59.788 131.378 59.4282C130.175 58.9784 128.839 58.7086 127.369 58.6186C125.944 58.4837 124.585 58.4837 123.293 58.6186C122.001 58.7086 120.91 58.911 120.019 59.2258C119.128 59.5406 118.638 59.9004 118.549 60.3052C118.594 58.1914 118.616 56.4823 118.616 55.1781C118.616 53.8738 118.616 52.8394 118.616 52.0748C118.616 51.2652 118.594 50.6581 118.549 50.2533C118.549 49.8035 118.527 49.3988 118.482 49.039C118.482 48.6342 118.46 48.2069 118.416 47.7572C118.416 47.2625 118.393 46.5653 118.349 45.6658V44.9238ZM128.705 71.0992C128.928 71.7289 129.062 72.381 129.106 73.0556C129.151 73.7302 129.173 74.3824 129.173 75.012C129.173 76.1364 129.04 77.2383 128.772 78.3177C128.505 79.3521 128.104 80.2966 127.57 81.1511C127.035 81.9607 126.389 82.6128 125.632 83.1075C124.875 83.6023 124.028 83.8496 123.093 83.8496C121.935 83.8496 121.044 83.6023 120.42 83.1075C119.796 82.6128 119.306 81.9382 118.95 81.0837C118.638 80.2291 118.438 79.2172 118.349 78.0478C118.304 76.8335 118.282 75.5068 118.282 74.0676C118.282 72.3135 118.304 70.9418 118.349 69.9523C118.438 68.9179 118.616 68.1309 118.883 67.5912C119.151 67.0515 119.551 66.7141 120.086 66.5792C120.665 66.3993 121.422 66.3094 122.358 66.3094C124.184 66.3094 125.632 66.7141 126.701 67.5237C127.815 68.3332 128.483 69.5251 128.705 71.0992Z" fill="#D55730"/>
<path d="M167.317 69.0079C167.317 66.5792 166.872 64.3979 165.981 62.464C165.09 60.4851 163.597 59.0459 161.504 58.1464C160.346 57.8766 159.076 57.6742 157.695 57.5392C156.314 57.3593 154.934 57.2694 153.553 57.2694C152.172 57.2694 150.858 57.3369 149.61 57.4718C148.408 57.6067 147.383 57.7866 146.537 58.0115C144.354 58.5962 142.661 59.7205 141.459 61.3846C140.301 63.0487 139.677 64.8702 139.588 66.8491C139.543 68.783 140.078 70.6719 141.191 72.5159C142.35 74.3149 144.176 75.6417 146.67 76.4962C147.918 77.0359 149.187 77.4182 150.479 77.6431C151.771 77.8679 152.929 78.1378 153.954 78.4526C154.978 78.7225 155.802 79.1272 156.426 79.6669C157.049 80.2066 157.294 81.0162 157.161 82.0956C157.205 83.3999 156.804 84.2994 155.958 84.7941C155.112 85.2888 154.176 85.4912 153.152 85.4013C152.127 85.2663 151.147 84.884 150.212 84.2544C149.321 83.5798 148.853 82.7252 148.809 81.6908C147.428 81.6908 145.802 81.6683 143.931 81.6234C142.06 81.5334 140.39 81.5784 138.92 81.7583V81.8932V82.0956C138.92 83.8946 139.276 85.5137 139.989 86.9529C140.746 88.3921 141.771 89.6064 143.062 90.5959C144.399 91.5853 145.98 92.3274 147.806 92.8221C149.633 93.3168 151.682 93.5192 153.954 93.4293C156.537 93.4743 158.92 93.0245 161.103 92.08C163.286 91.1356 164.889 89.5614 165.914 87.3577C166.76 84.884 167.072 82.8152 166.849 81.1511C166.627 79.4421 166.025 77.778 165.045 76.1589C164.021 74.8096 162.417 73.8427 160.234 73.258C158.052 72.6284 155.713 72.1336 153.219 71.7738C152.194 71.414 151.414 70.8743 150.88 70.1547C150.345 69.4351 150.078 68.7155 150.078 67.9959C150.078 67.2763 150.323 66.6242 150.813 66.0395C151.348 65.4099 152.127 65.0051 153.152 64.8252C153.731 64.7802 154.31 64.8702 154.889 65.095C155.513 65.2749 156.047 65.5673 156.493 65.9721C156.983 66.3768 157.339 66.8491 157.562 67.3888C157.829 67.9285 157.896 68.4682 157.762 69.0079C159.277 69.3227 160.88 69.4576 162.573 69.4126C164.31 69.3677 165.892 69.2327 167.317 69.0079Z" fill="#D55730"/>
<path d="M99.1826 195.077C100.702 195.077 101.774 194.985 102.399 194.802C103.025 194.618 103.427 194.481 103.605 194.389V191.636C103.605 189.8 103.561 187.964 103.471 186.129C103.471 184.293 103.471 182.458 103.471 180.622C103.471 178.052 103.471 175.529 103.471 173.051C103.561 170.573 103.605 168.003 103.605 165.341C103.605 161.395 103.605 157.448 103.605 153.502C103.605 149.556 103.561 145.655 103.471 141.8V97.4717C100.88 96.921 97.9318 96.6457 94.6258 96.6457C91.2306 96.6457 88.014 96.921 84.9761 97.4717C84.8868 99.7661 84.7974 101.923 84.7081 103.942C84.7081 105.869 84.7081 107.797 84.7081 109.724C84.7081 113.028 84.7527 116.286 84.8421 119.498C85.0208 122.619 85.1101 126.015 85.1101 129.686C85.1101 131.246 85.0208 132.852 84.8421 134.504C84.6634 136.156 84.44 137.074 84.172 137.257C84.0826 137.257 83.7699 136.753 83.2338 135.743C82.6977 134.642 82.0276 133.357 81.2235 131.888C80.5087 130.328 79.7045 128.63 78.811 126.795C77.9175 124.867 77.0687 123.078 76.2646 121.426C75.4604 119.682 74.7456 118.168 74.1202 116.883C73.4948 115.598 73.0927 114.726 72.914 114.267C72.1098 112.34 71.395 110.779 70.7696 109.586C70.2335 108.301 69.6974 107.154 69.1613 106.145C68.7146 105.135 68.2232 104.08 67.6871 102.978C67.151 101.877 66.5702 100.5 65.9447 98.8483C65.9447 98.6648 65.4533 98.4812 64.4705 98.2977C63.577 98.1141 62.5048 97.9765 61.2539 97.8847C60.003 97.7011 58.7521 97.6094 57.5013 97.6094C56.2504 97.5176 55.3569 97.4717 54.8208 97.4717C53.7486 97.4717 52.6764 97.5176 51.6042 97.6094C50.6214 97.7011 49.6832 97.8388 48.7897 98.0223C48.343 103.896 48.0302 109.953 47.8515 116.194C47.6728 122.343 47.5835 128.584 47.5835 134.917C47.5835 143.544 47.6282 151.804 47.7175 159.697C47.8962 167.59 47.9856 175.896 47.9856 184.615V194.251C50.0406 194.251 52.1403 194.389 54.2847 194.664C56.5184 194.94 58.7075 195.077 60.8518 195.077C61.8347 195.077 62.8175 195.031 63.8004 194.94C64.7832 194.848 65.766 194.664 66.7489 194.389C66.6595 192.829 66.6149 191.085 66.6149 189.158C66.6149 187.138 66.6149 185.073 66.6149 182.963C66.6149 179.108 66.6149 175.116 66.6149 170.986C66.7042 166.856 66.7936 163.093 66.8829 159.697C66.9723 156.301 67.0616 153.502 67.151 151.299C67.3297 149.097 67.4637 147.995 67.553 147.995C67.7317 147.995 67.9551 148.454 68.2232 149.372C68.5805 150.198 68.9379 151.116 69.2953 152.125L70.6356 156.255C72.6906 162.129 75.1477 168.278 78.0069 174.703C80.9554 181.035 83.9039 187.597 86.8525 194.389C88.6394 194.389 90.6945 194.481 93.0175 194.664C95.3406 194.94 97.3957 195.077 99.1826 195.077Z" fill="#CCD8CE"/>
<path d="M135.643 97.6094C131.623 97.7011 128.54 97.7011 126.396 97.6094C124.341 97.4258 122.509 97.2881 120.901 97.1963C120.275 97.1963 119.292 97.1505 117.952 97.0587C116.701 96.8751 115.853 96.8292 115.406 96.921V97.1963C114.602 104.906 114.2 112.799 114.2 120.875C114.289 128.86 114.423 136.982 114.602 145.242C114.87 153.41 115.048 161.67 115.138 170.022C115.227 178.374 114.959 186.68 114.334 194.94C115.227 194.664 116.88 194.572 119.292 194.664C121.705 194.848 124.207 194.985 126.798 195.077C129.478 195.169 131.935 195.123 134.169 194.94C136.492 194.848 138.011 194.435 138.726 193.701C138.279 185.899 138.011 178.007 137.922 170.022C137.832 162.037 137.832 154.053 137.922 146.068C138.1 137.992 138.279 129.961 138.458 121.976C138.726 113.992 138.86 106.053 138.86 98.16V97.6094H135.643Z" fill="#CCD8CE"/>
<path d="M208.789 126.795C208.521 121.563 207.359 117.112 205.304 113.441C203.249 109.77 200.613 106.741 197.397 104.355C194.27 101.877 190.651 100.041 186.541 98.8483C182.431 97.5635 178.187 96.7375 173.809 96.3704C169.52 96.0032 165.187 96.0491 160.808 96.508C156.52 96.9669 152.544 97.7011 148.88 98.7107C149.148 106.328 149.282 114.313 149.282 122.665C149.372 131.016 149.416 139.322 149.416 147.582C149.416 155.842 149.416 163.919 149.416 171.812C149.416 179.613 149.55 186.863 149.818 193.563C151.337 193.746 153.124 193.884 155.179 193.976C157.234 194.068 159.289 194.114 161.345 194.114C163.489 194.022 165.499 193.93 167.376 193.838C169.341 193.655 170.95 193.379 172.2 193.012C172.29 193.012 172.334 193.012 172.334 193.012C172.424 192.92 172.513 192.875 172.603 192.875V192.737C172.424 186.037 172.29 180.714 172.2 176.768C172.2 172.821 172.2 169.701 172.2 167.406C172.2 165.02 172.2 163.23 172.2 162.037C172.2 160.752 172.156 159.467 172.066 158.183C176.355 158.917 180.555 158.733 184.665 157.632C188.775 156.439 192.527 154.557 195.923 151.988C199.318 149.418 202.132 146.297 204.366 142.626C206.689 138.955 208.119 134.917 208.655 130.512C208.744 129.961 208.789 129.41 208.789 128.86C208.789 128.217 208.789 127.575 208.789 126.932V126.795ZM185.335 121.013C186.496 121.747 187.39 122.665 188.015 123.766C188.73 124.867 189.177 126.06 189.355 127.345C189.624 128.63 189.579 129.915 189.221 131.2C188.953 132.485 188.462 133.632 187.747 134.642C186.675 135.743 185.379 136.569 183.86 137.12C182.431 137.579 180.912 137.9 179.304 138.083C177.785 138.267 176.221 138.405 174.613 138.496C173.005 138.496 171.486 138.542 170.056 138.634H169.654C169.207 137.257 168.895 135.743 168.716 134.091C168.626 132.347 168.537 130.558 168.448 128.722C168.448 126.886 168.448 125.051 168.448 123.215C168.537 121.38 168.537 119.636 168.448 117.984C168.537 117.892 168.671 117.846 168.85 117.846C171.709 117.112 174.613 117.02 177.561 117.571C180.51 118.03 183.101 119.177 185.335 121.013Z" fill="#CCD8CE"/>
</svg>
